<svg xmlns="http://www.w3.org/2000/svg" width="24" height="24" fill="none">
    <g clip-path="url(#a)">
        <path fill="#9C38FF" d="M0 0h24v24H0z" />
        <path fill="#fff" fill-rule="evenodd"
            d="M21.102 11.87c-1.3 0-2.05-1.116-2.05-3.376s.75-3.377 2.05-3.377c1.299 0 2.05 1.117 2.05 3.377s-.751 3.376-2.05 3.376Zm-.55-3.376c0 1.793.202 2.214.55 2.214.347 0 .549-.42.549-2.214s-.202-2.214-.55-2.214c-.347 0-.548.42-.548 2.214Zm-4.111-.43h1.976v3.678h-1.034l-.082-.54c-.247.44-.576.65-1.034.65-1.125 0-1.784-1.327-1.784-3.367 0-2.022.622-3.368 2.086-3.368 1.135 0 1.61.879 1.84 1.684l-1.2.467c-.274-.76-.43-.988-.65-.988-.41 0-.576.549-.576 2.196 0 1.646.174 2.205.586 2.205.384 0 .567-.696.567-1.309V9.29h-.695V8.064Zm-3.988.704a18.712 18.712 0 0 0-.115-.439l-.87-3.083H9.896v6.496h1.327V8.53c0-.356-.01-.668-.019-.786.02.056.05.176.086.32.035.137.075.296.116.439l.905 3.24h1.538V5.245H12.52v3.056c0 .357.01.668.018.787a6.433 6.433 0 0 1-.086-.32Zm-4.656 1.803.174 1.171h1.5L8.254 5.246H6.305l-1.207 6.496h1.39l.174-1.171h1.135Zm-.174-1.226h-.787l.003-.018h-.001l.385-3.253.39 3.202.01.069Zm8.938 6.58-.621-2.89h-1.457l1.372 4.236v2.26h1.446v-2.25l1.373-4.246h-1.457l-.656 2.89Zm-8.066-2.89v5.27h1.482v1.226H7.05v-6.496h1.446Zm-5.803 0v6.496h1.445v-2.48h.522c1.098 0 1.83-.86 1.83-2.003 0-1.144-.732-2.013-1.73-2.013H2.693Zm1.747 2.928h-.31v-1.84h.31c.44 0 .64.376.64.915 0 .485-.2.925-.64.925Zm8.728 2.397.174 1.171h1.5l-1.216-6.496h-1.95l-1.207 6.496h1.39l.175-1.171h1.134Zm-.174-1.226h-.787v-.002l.386-3.253.366 3.013.035.242ZM2.83 5.246h.081H1.32l1.373 4.236v2.26h1.445v-2.25L5.51 5.245H4.027h.08l-.655 2.89-.622-2.89Z"
            clip-rule="evenodd" />
    </g>
    <defs>
        <clipPath id="a">
            <path fill="#fff" d="M0 0h24v24H0z" />
        </clipPath>
    </defs>
</svg>
